<?xml version="1.0" encoding="UTF-8"?>
<svg id="Camada_1" xmlns="http://www.w3.org/2000/svg" version="1.1" xmlns:xlink="http://www.w3.org/1999/xlink" viewBox="0 0 1080 896.67">
  <!-- Generator: Adobe Illustrator 30.3.0, SVG Export Plug-In . SVG Version: 2.1.3 Build 182)  -->
  <defs>
    <style>
      .st0 {
        fill: #063;
        font-family: Ubuntu-Bold, Ubuntu;
        font-size: 216.14px;
        font-weight: 700;
      }

      .st1 {
        fill: url(#linear-gradient);
      }
    </style>
    <linearGradient id="linear-gradient" x1="1095.51" y1="336.92" x2="-3.11" y2="336.92" gradientUnits="userSpaceOnUse">
      <stop offset="0" stop-color="#063"/>
      <stop offset="1" stop-color="#39a935"/>
    </linearGradient>
  </defs>
  <text class="st0" transform="translate(142.46 852.85)"><tspan x="0" y="0">EcoMed</tspan></text>
  <path class="st1" d="M394.37,609.26c-69.78.01-139.56-26.55-192.69-79.68L28.28,356.18c-10.65-10.65-10.65-27.91,0-38.56l173.4-173.41c91.32-91.31,234.71-105.23,341.31-35.76,106.6-69.47,249.99-55.55,341.32,35.76l173.4,173.41c10.65,10.65,10.65,27.91,0,38.56l-173.4,173.4c-91.33,91.34-234.72,105.23-341.33,35.76-44.99,29.28-96.8,43.92-148.61,43.92ZM86.12,336.9l154.13,154.12c77.57,77.57,199.55,84.34,284.86,20.3.86-.74,1.75-1.43,2.68-2.05,7.19-5.57,14.11-11.66,20.7-18.25l203.67-203.67-5.5-5.5c-14.7-14.69-34.24-22.79-55.03-22.79s-40.34,8.1-55.03,22.8l-148.64,148.63c-24.99,24.99-58.24,38.76-93.6,38.76-35.35,0-68.58-13.77-93.59-38.76l-24.77-24.78c-7.8-7.8-10.13-19.52-5.91-29.71,1.43-3.44,3.51-6.49,6.07-9,5.88-5.87,206.85-206.85,221.89-221.9-83.28-45.02-189-31.13-257.8,37.66l-154.13,154.13ZM587.95,528.68c83.29,45.01,189,31.13,257.8-37.66l154.13-154.12-154.12-154.13c-76.55-76.53-198.8-85.11-285-20.22-.78.67-1.59,1.29-2.43,1.86-7.27,5.63-14.27,11.81-20.83,18.37l-203.67,203.67,5.5,5.49c14.7,14.7,34.24,22.79,55.02,22.79,20.8,0,40.36-8.1,55.06-22.79l148.63-148.63c24.99-25,58.23-38.78,93.59-38.78s68.59,13.77,93.59,38.76l24.78,24.79c10.64,10.65,10.64,27.91,0,38.56l-222.06,222.05Z"/>
</svg>
