<?xml version="1.0" encoding="UTF-8"?>
<svg id="Camada_1" xmlns="http://www.w3.org/2000/svg" version="1.1" xmlns:xlink="http://www.w3.org/1999/xlink" viewBox="0 0 1023.59 250.51">
  <!-- Generator: Adobe Illustrator 30.3.0, SVG Export Plug-In . SVG Version: 2.1.3 Build 182)  -->
  <defs>
    <style>
      .st0 {
        fill: #063;
        font-family: Ubuntu-Bold, Ubuntu;
        font-size: 141.36px;
        font-weight: 700;
      }

      .st1 {
        fill: url(#linear-gradient);
      }
    </style>
    <linearGradient id="linear-gradient" x1="458.83" y1="130.09" x2="17.71" y2="130.09" gradientUnits="userSpaceOnUse">
      <stop offset="0" stop-color="#063"/>
      <stop offset="1" stop-color="#39a935"/>
    </linearGradient>
  </defs>
  <text class="st0" transform="translate(470.33 176.96)"><tspan x="0" y="0">EcoMed</tspan></text>
  <path class="st1" d="M177.31,239.43c-28.02,0-56.04-10.66-77.37-31.99L30.32,137.82c-4.28-4.28-4.28-11.21,0-15.48L99.94,52.7c36.67-36.66,94.24-42.25,137.04-14.36,42.8-27.89,100.38-22.3,137.05,14.36l69.62,69.63c4.28,4.28,4.28,11.21,0,15.48l-69.62,69.62c-36.67,36.67-94.25,42.25-137.05,14.36-18.06,11.75-38.87,17.64-59.67,17.64ZM53.54,130.07l61.88,61.88c31.15,31.15,80.13,33.86,114.38,8.15.34-.3.7-.57,1.08-.82,2.89-2.24,5.66-4.68,8.31-7.33l81.78-81.78-2.21-2.21c-5.9-5.9-13.75-9.15-22.1-9.15s-16.2,3.25-22.1,9.16l-59.68,59.68c-10.03,10.03-23.38,15.56-37.58,15.56-14.19,0-27.54-5.53-37.58-15.56l-9.95-9.95c-3.13-3.13-4.07-7.84-2.37-11.93.57-1.38,1.41-2.6,2.44-3.61,2.36-2.36,83.05-83.05,89.1-89.1-33.44-18.07-75.89-12.5-103.51,15.12l-61.88,61.89ZM255.04,207.08c33.44,18.07,75.89,12.5,103.51-15.12l61.89-61.88-61.88-61.89c-30.74-30.73-79.82-34.17-114.43-8.12-.31.27-.64.52-.98.75-2.92,2.26-5.73,4.74-8.36,7.37l-81.78,81.78,2.21,2.21c5.9,5.9,13.75,9.15,22.09,9.15,8.35,0,16.21-3.25,22.11-9.15l59.68-59.68c10.03-10.04,23.38-15.57,37.58-15.57s27.54,5.53,37.58,15.56l9.95,9.95c4.27,4.28,4.27,11.21,0,15.48l-89.16,89.16Z"/>
</svg>
